<svg xmlns="http://www.w3.org/2000/svg" width="11.708" height="11.708" viewBox="0 0 11.708 11.708"><defs><style>.a{fill:#02c286;}</style></defs><g transform="translate(-1586 -444)"><path class="a" d="M112.937,120.9v1.873h1.873v.937H112V120.9Zm10.771,0v2.81H120.9v-.937h1.873V120.9Zm-8.9-8.9v.937h-1.873v1.873H112V112Zm8.9,0v2.81h-.937v-1.873H120.9V112Z" transform="translate(1474 332)"/><path class="a" d="M189.291,147.772a.269.269,0,0,1-.135-.036l-2.839-1.67a.266.266,0,0,1,0-.459l2.839-1.67a.266.266,0,0,1,.269,0l2.839,1.67a.266.266,0,0,1,0,.459l-2.839,1.67A.269.269,0,0,1,189.291,147.772Zm-.505,4.273a.269.269,0,0,1-.135-.036l-2.84-1.67a.265.265,0,0,1-.131-.229v-3.34a.265.265,0,0,1,.4-.228l2.839,1.67a.265.265,0,0,1,.131.229v3.339a.265.265,0,0,1-.134.23A.258.258,0,0,1,188.785,152.045Zm1.011,0a.261.261,0,0,1-.132-.035.266.266,0,0,1-.134-.23v-3.34a.266.266,0,0,1,.131-.229l2.839-1.67a.265.265,0,0,1,.4.228v3.34a.266.266,0,0,1-.131.229l-.195.115-2.644,1.556A.259.259,0,0,1,189.8,152.045Z" transform="translate(1402.32 302.1)"/></g></svg>