<svg xmlns="http://www.w3.org/2000/svg" width="11.777" height="11.768" viewBox="0 0 11.777 11.768"><defs><style>.a{fill:#02c286;}</style></defs><path class="a" d="M75.3,70.987l-1-.757a2.872,2.872,0,0,0,0-.693l1-.757a.681.681,0,0,0,.168-.893l-1.114-1.881a.719.719,0,0,0-.62-.357.652.652,0,0,0-.242.042l-1.187.462a4.03,4.03,0,0,0-.62-.347L71.5,64.6a.7.7,0,0,0-.7-.6H68.549a.7.7,0,0,0-.7.588l-.168,1.219a4.59,4.59,0,0,0-.62.347l-1.187-.462a.706.706,0,0,0-.252-.042.68.68,0,0,0-.609.347l-1.124,1.891a.685.685,0,0,0,.168.893l1,.757c-.011.126-.021.242-.021.347a2.041,2.041,0,0,0,.021.347l-1,.757a.681.681,0,0,0-.168.893L65,73.761a.719.719,0,0,0,.62.357.652.652,0,0,0,.242-.042l1.187-.462a4.03,4.03,0,0,0,.62.347l.179,1.208a.7.7,0,0,0,.7.6H70.8a.7.7,0,0,0,.7-.588l.179-1.219a4.59,4.59,0,0,0,.62-.347l1.187.462a.707.707,0,0,0,.252.042.68.68,0,0,0,.609-.347l1.124-1.9A.684.684,0,0,0,75.3,70.987Zm-3.1-1.1a2.522,2.522,0,1,1-2.522-2.522A2.529,2.529,0,0,1,72.2,69.884Z" transform="translate(-63.787 -64)"/></svg>