<svg xmlns="http://www.w3.org/2000/svg" width="10.759" height="11.504" viewBox="0 0 10.759 11.504"><defs><style>.a{fill:#5734d3;}</style></defs><path class="a" d="M10.707,2.156a1.246,1.246,0,0,1,.614.149,1.761,1.761,0,0,1,.465.367,1.628,1.628,0,0,1,.3.47,1.2,1.2,0,0,1,.1.447v6.48a1.315,1.315,0,0,1-.132.6,1.428,1.428,0,0,1-.344.447,1.63,1.63,0,0,1-.476.287,1.439,1.439,0,0,1-.528.1H5.053a1.094,1.094,0,0,1-.476-.126,2.012,2.012,0,0,1-.482-.333,1.885,1.885,0,0,1-.373-.476,1.115,1.115,0,0,1-.149-.545V3.636a1.226,1.226,0,0,1,.115-.5,1.991,1.991,0,0,1,.3-.476A1.665,1.665,0,0,1,4.41,2.3a.972.972,0,0,1,.5-.143h5.792Zm-.677,7.169a.706.706,0,0,0,.51-.206.677.677,0,0,0,.212-.5.724.724,0,0,0-.723-.723h-4.3a.724.724,0,0,0-.723.723.677.677,0,0,0,.212.5.706.706,0,0,0,.51.206Zm0-2.867a.706.706,0,0,0,.51-.206.677.677,0,0,0,.212-.5.724.724,0,0,0-.723-.723h-4.3a.724.724,0,0,0-.723.723.677.677,0,0,0,.212.5.706.706,0,0,0,.51.206ZM12.061,0a1.534,1.534,0,0,1,.906.292,2.994,2.994,0,0,1,.717.723,3.681,3.681,0,0,1,.476.929,2.82,2.82,0,0,1,.172.912v6.09a.743.743,0,0,1-.143.442,1.425,1.425,0,0,1-.35.344,1.9,1.9,0,0,1-.447.229,1.336,1.336,0,0,1-.447.086H12.9V3.2A2.065,2.065,0,0,0,12.4,1.984a1.912,1.912,0,0,0-1.067-.551h-5.6a.2.2,0,0,0,.011-.08A.945.945,0,0,1,5.89.883,1.689,1.689,0,0,1,6.251.447a2.062,2.062,0,0,1,.5-.321A1.312,1.312,0,0,1,7.3,0h4.76Z" transform="translate(-3.573)"/></svg>