<svg xmlns="http://www.w3.org/2000/svg" width="11.951" height="11.154" viewBox="0 0 11.951 11.154"><defs><style>.a{fill:#02c286;}</style></defs><path class="a" d="M192.966,217.516a13.095,13.095,0,0,0,10.018,0c.611.344.966.754.966,1.2,0,1.21-2.675,2.191-5.976,2.191S192,219.921,192,218.711c0-.441.355-.851.966-1.2Zm.4,3.386a13.732,13.732,0,0,0,9.219,0c.853.378,1.366.864,1.366,1.394,0,1.21-2.675,2.191-5.976,2.191S192,223.506,192,222.3C192,221.766,192.512,221.28,193.366,220.9Zm4.609-3.187c-3.3,0-5.975-.981-5.975-2.191s2.675-2.191,5.975-2.191,5.976.981,5.976,2.191S201.275,217.715,197.975,217.715Z" transform="translate(-192 -213.333)"/></svg>