<svg xmlns="http://www.w3.org/2000/svg" width="9.861" height="11.831" viewBox="0 0 9.861 11.831"><defs><style>.a{fill:#5734d3;}</style></defs><path class="a" d="M169.671,103.36a.614.614,0,0,1,.616-.612h3.081v-.612a.614.614,0,0,1,.616-.612h1.233a.614.614,0,0,1,.616.612v.612h3.081a.615.615,0,0,1,.616.612v.612h-9.861v-.614Zm9.244,1.836v7.548a.615.615,0,0,1-.616.612h-7.4a.614.614,0,0,1-.616-.612v-8.159h8.628v.611Zm-6.163,1.225a.616.616,0,0,0-1.232,0v5.1a.616.616,0,0,0,1.233,0v-5.1Zm2.466,0a.616.616,0,0,0-1.233,0v5.1a.616.616,0,0,0,1.233,0v-5.1Zm2.465,0a.616.616,0,0,0-1.233,0v5.1a.616.616,0,0,0,1.233,0v-5.1Z" transform="translate(-169.671 -101.525)"/></svg>