<svg xmlns="http://www.w3.org/2000/svg" width="8.642" height="11.811" viewBox="0 0 8.642 11.811"><defs><style>.a{fill:#ff9315;}</style></defs><g transform="translate(-164 -460)"><path class="a" d="M2.023,11.811a.449.449,0,0,1-.353-.174.419.419,0,0,1-.07-.37L2.752,6.912H.433a.431.431,0,0,1-.4-.586L1.6,2.195l4.26,5.453L2.342,11.661A.422.422,0,0,1,2.023,11.811ZM6.33,7.116h0L1.892,1.436,2.334.278A.434.434,0,0,1,2.737,0H6.625a.432.432,0,0,1,.4.595L5.684,3.888H8.209a.432.432,0,0,1,.325.717l-2.2,2.511Z" transform="translate(164 460)"/><rect class="a" width="11.818" height="0.695" transform="translate(164.727 460.974) rotate(52)"/></g></svg>