<svg xmlns="http://www.w3.org/2000/svg" width="10.362" height="11.768" viewBox="0 0 10.362 11.768"><defs><style>.a{fill:#5734d3;}</style></defs><g transform="translate(-109.493 -64.3)"><path class="a" d="M163.923,70.087l-1-1.971a1.02,1.02,0,0,0-.913-.56h-1.531a.026.026,0,0,1-.026-.026V65.04a.74.74,0,0,0-.74-.74h-1.182a.74.74,0,0,0-.74.74v2.491a.026.026,0,0,1-.026.026h-1.531a1.02,1.02,0,0,0-.913.56l-1,1.971a.762.762,0,0,0,.678,1.108h8.249a.763.763,0,0,0,.679-1.108Z" transform="translate(-44.152)"/><path class="a" d="M118.839,534.276l-.108-.176h-7.91l0,.37a4.379,4.379,0,0,1-1.189,3.032.769.769,0,0,0-.078.753.759.759,0,0,0,.7.453h1.1a.649.649,0,0,0,.372-.116,3.641,3.641,0,0,0,1.143-1.4,4.479,4.479,0,0,0,.381-1.113.368.368,0,1,1,.723.135c-.02.1-.045.213-.075.326a5.573,5.573,0,0,1-.369.975,5.216,5.216,0,0,1-.332.582.394.394,0,0,0,.33.61h1.232a.657.657,0,0,0,.514-.247,4.942,4.942,0,0,0,.712-1.18,2.693,2.693,0,0,0,.225-1.123.367.367,0,1,1,.734-.025,3.8,3.8,0,0,1-.552,1.987.393.393,0,0,0,.343.589h1.418a1.027,1.027,0,0,0,.988-.754,8.59,8.59,0,0,0,.386-2.167A1.957,1.957,0,0,0,118.839,534.276Z" transform="translate(0 -462.641)"/></g></svg>