<svg xmlns="http://www.w3.org/2000/svg" width="11.767" height="11.768" viewBox="0 0 11.767 11.768"><defs><style>.a{fill:#02c286;}</style></defs><path class="a" d="M77.5,42.71h-.78v-2.2a.407.407,0,0,0-.392-.42H72.4V38.927h1.962a.407.407,0,0,0,.393-.42V34.724a.407.407,0,0,0-.393-.42H69.658a.406.406,0,0,0-.392.42v3.783a.406.406,0,0,0,.392.42h1.961v1.163h-3.9a.407.407,0,0,0-.392.42l0,2.2h-.808a.406.406,0,0,0-.392.42v2.522a.406.406,0,0,0,.392.42h2.354a.408.408,0,0,0,.393-.42V43.13a.408.408,0,0,0-.393-.42h-.762V40.931h3.508V42.71h-.785a.408.408,0,0,0-.393.42v2.522a.408.408,0,0,0,.393.42h2.354a.407.407,0,0,0,.393-.42V43.13a.407.407,0,0,0-.393-.42H72.4V40.931h3.536V42.71h-.79a.406.406,0,0,0-.392.42v2.522a.406.406,0,0,0,.392.42H77.5a.407.407,0,0,0,.392-.42V43.13a.407.407,0,0,0-.392-.42Z" transform="translate(-66.127 -34.304)"/></svg>