<?xml version="1.0" standalone="no"?><!DOCTYPE svg PUBLIC "-//W3C//DTD SVG 1.1//EN" "http://www.w3.org/Graphics/SVG/1.1/DTD/svg11.dtd"><svg t="1701071417198" class="icon" viewBox="0 0 1024 1024" version="1.1" xmlns="http://www.w3.org/2000/svg" p-id="92254" xmlns:xlink="http://www.w3.org/1999/xlink" width="20" height="20"><path d="M795.59695994 228.40304006C638.71353519 71.5196153 385.28646481 71.5196153 228.40304006 228.40304006c-76.93321779 76.93321779-116.15407345 176.49385258-116.15407416 279.07147654-1.50849423 1.50849423 0 3.01698846-1.50849353 4.5254834 0 3.01698846 0 3.01698846 1.50849353 4.5254834 1.50849423 101.06912902 39.22085637 202.13825875 116.15407416 279.07147654 156.88342475 156.88342475 410.31049513 156.88342475 567.19391988 0S952.4803847 385.28646481 795.59695994 228.40304006z m-40.72935059 40.72935059c60.33977843 60.33977843 93.52665645 135.76450199 99.56063479 214.20621472L169.57175586 483.33860537C177.11422843 406.40538687 208.79261223 329.47216908 269.13239065 269.13239065c134.25600776-134.25600776 351.47921094-134.25600776 485.7352187 0z m-485.7352187 485.7352187c-60.33977843-60.33977843-93.52665645-135.76450199-99.56063479-214.20621472l681.83949911 7.1e-7c-6.03397763 78.44171202-39.22085566 153.86643559-99.56063479 214.2062133-131.23901859 134.25600705-348.46222177 134.25600705-482.71822953 7.1e-7z" fill="#908c96" p-id="92255"></path></svg>