<svg xmlns="http://www.w3.org/2000/svg" xmlns:xlink="http://www.w3.org/1999/xlink" width="34" height="34" viewBox="0 0 34 34"><defs><style>.a{fill:#fff;}.b{clip-path:url(#a);}</style><clipPath id="a"><rect class="a" width="34" height="34" transform="translate(11 375)"/></clipPath></defs><g class="b" transform="translate(-11 -375)"><path class="a" d="M85.832,64.067c-.071-.029-.548-.034-.62-.044-.015,0-.445-.008-.445-.008v-.008s.709-.007.66-.007H65.484a.866.866,0,0,0-.6,1.492l6.441,6.426V86.7a.825.825,0,0,0,.025.205c.007.017-.005.034,0,.049a.816.816,0,0,0,1.4.3.178.178,0,0,0,.018-.012L79.4,80.618c.005-.005.024-.012.029-.017a.844.844,0,0,0,.3-.622V71.918l6.407-6.424c.005-.005,0-.012,0-.017a.823.823,0,0,0,.281-.622A.835.835,0,0,0,85.832,64.067Z" transform="translate(-47.618 316)"/></g></svg>