<svg xmlns="http://www.w3.org/2000/svg" xmlns:xlink="http://www.w3.org/1999/xlink" width="34" height="34" viewBox="0 0 34 34"><defs><style>.a{fill:#fff;}.b{clip-path:url(#a);}</style><clipPath id="a"><rect class="a" width="34" height="34" transform="translate(11 247)"/></clipPath></defs><g class="b" transform="translate(-11 -247)"><path class="a" d="M85.574,112a1.525,1.525,0,0,1,1.525,1.525v5.084a1.525,1.525,0,0,1-1.525,1.525H82.636v.96H86.8a2.369,2.369,0,0,1,2.365,2.333v1.734h2.062a1.525,1.525,0,0,1,1.525,1.525v3.446a1.525,1.525,0,0,1-1.525,1.525H85.63a1.525,1.525,0,0,1-1.525-1.525v-3.446a1.525,1.525,0,0,1,1.525-1.525h2.062v-1.695a.9.9,0,0,0-.879-.9H76.952a.9.9,0,0,0-.9.886v1.713h2.062a1.525,1.525,0,0,1,1.525,1.525v3.446a1.525,1.525,0,0,1-1.525,1.525H72.525A1.525,1.525,0,0,1,71,130.134v-3.446a1.525,1.525,0,0,1,1.525-1.525h2.062v-1.695a2.369,2.369,0,0,1,2.326-2.372h4.254v-.96H77.778a1.525,1.525,0,0,1-1.525-1.525v-5.084A1.525,1.525,0,0,1,77.778,112h7.8Z" transform="translate(-54 142)"/></g></svg>