<svg xmlns="http://www.w3.org/2000/svg" xmlns:xlink="http://www.w3.org/1999/xlink" width="34" height="34" viewBox="0 0 34 34"><defs><style>.a{fill:#fff;}.b{clip-path:url(#a);}</style><clipPath id="a"><rect class="a" width="34" height="34" transform="translate(11 311)"/></clipPath></defs><g class="b" transform="translate(-11 -311)"><g transform="translate(-380.002 120.493)"><path class="a" d="M404.02,208.592h-1.739a.408.408,0,0,0-.462.466c0,.455,0,.909,0,1.4-.042-.051-.062-.074-.081-.1q-1.712-2.19-3.426-4.378c-.055-.07-.038-.108.008-.167q1.607-2.052,3.212-4.107c.088-.113.178-.225.287-.363,0,.434.014.836,0,1.236-.02.431.169.58.57.578,2.836-.009,5.672,0,8.508-.008.126,0,.172.019.168.161-.012.411-.006.823,0,1.234a.4.4,0,0,0,.408.412c.155,0,.31,0,.465,0a.406.406,0,0,0,.454-.46c0-.734-.011-1.469.005-2.2a.442.442,0,0,0-.469-.475c-2.88.008-5.76,0-8.641.008-.111,0-.138-.027-.137-.137.005-.774,0-1.549,0-2.323a.4.4,0,0,0-.438-.436c-.141,0-.283,0-.425,0a.5.5,0,0,0-.441.219q-2.535,3.247-5.075,6.49a.38.38,0,0,0,0,.518l2.052,2.622q1.508,1.928,3.014,3.858a.415.415,0,0,0,.363.179c.155,0,.31,0,.464,0,.341,0,.487-.144.487-.48,0-.761,0-1.522,0-2.283,0-.1.018-.137.128-.133.265.009.531.005.8,0a.393.393,0,0,0,.4-.4c0-.155,0-.31,0-.465A.407.407,0,0,0,404.02,208.592Z" transform="translate(-1.78 -0.572)"/><path class="a" d="M721.721,343.428q-.78-.994-1.559-1.988-2.06-2.635-4.118-5.271a.476.476,0,0,0-.418-.208c-.213.007-.426,0-.639,0a.455.455,0,0,0-.511.513c0,.813,0,1.626,0,2.439,0,.147-.038.175-.179.175-3.053,0-6.107,0-9.16-.009a.5.5,0,0,0-.517.509c.009,2.751.005,5.5.005,8.253a.441.441,0,0,0,.491.495h4.58c1.542,0,3.083,0,4.625,0,.124,0,.154.03.154.154-.006.833,0,1.665,0,2.5a.445.445,0,0,0,.475.474c.188,0,.378-.014.565,0a.632.632,0,0,0,.6-.3q2.794-3.589,5.6-7.167A.427.427,0,0,0,721.721,343.428Z" transform="translate(-300.71 -133.808)"/></g></g></svg>