<?xml version="1.0" standalone="no"?><!DOCTYPE svg PUBLIC "-//W3C//DTD SVG 1.1//EN" "http://www.w3.org/Graphics/SVG/1.1/DTD/svg11.dtd"><svg t="1701071850342" class="icon" viewBox="0 0 1024 1024" version="1.1" xmlns="http://www.w3.org/2000/svg" p-id="137784" xmlns:xlink="http://www.w3.org/1999/xlink" width="20" height="20"><path d="M511.215 62.066c-247.841 0-448.76 200.919-448.76 448.766 0 247.841 200.919 448.76 448.76 448.76 247.847 0 448.766-200.919 448.766-448.76 0-247.847-200.919-448.766-448.766-448.766zM734.022 733.632c-5.145 5.145-11.888 7.718-18.625 7.718-6.743 0-13.486-2.573-18.63-7.718l-211.887-211.893v-267.967c0-14.558 11.803-26.348 26.342-26.348 14.545 0 26.348 11.791 26.348 26.348v246.152l196.452 196.452c10.289 10.278 10.289 26.971 0 37.256z" fill="#908c96" p-id="137785"></path></svg>