<?xml version="1.0" standalone="no"?><!DOCTYPE svg PUBLIC "-//W3C//DTD SVG 1.1//EN" "http://www.w3.org/Graphics/SVG/1.1/DTD/svg11.dtd"><svg t="1701136714543" class="icon" viewBox="0 0 1024 1024" version="1.1" xmlns="http://www.w3.org/2000/svg" p-id="6653" xmlns:xlink="http://www.w3.org/1999/xlink" width="20" height="20"><path d="M928 64c17.673 0 32 14.327 32 32v832c0 17.673-14.327 32-32 32H352c-17.673 0-32-14.327-32-32V768h-96c-17.673 0-32-14.327-32-32v-96h256v192h384V192H448v192H192v-96c0-17.673 14.327-32 32-32h96V96c0-17.673 14.327-32 32-32h576zM544 352a32 32 0 0 1 19.2 6.4l170.667 128c14.138 10.604 17.004 30.662 6.4 44.8a32 32 0 0 1-6.4 6.4L563.2 665.6c-14.138 10.604-34.196 7.738-44.8-6.4A32 32 0 0 1 512 640v-64.015c-0.332 0.01-0.665 0.015-1 0.015H96c-17.673 0-32-14.327-32-32v-64c0-17.673 14.327-32 32-32h415c0.335 0 0.668 0.005 1 0.015V384c0-17.673 14.327-32 32-32z" fill="#5734D3" p-id="6654"></path></svg>