<svg xmlns="http://www.w3.org/2000/svg" xmlns:xlink="http://www.w3.org/1999/xlink" width="34" height="34" viewBox="0 0 34 34"><defs><style>.a{fill:#fff;}.b{clip-path:url(#a);}.c{fill:#1c0d52;}</style><clipPath id="a"><rect class="a" width="34" height="34" transform="translate(11 439)"/></clipPath></defs><g class="b" transform="translate(-11 -439)"><path class="a" d="M66.783,76.1l.521-8.259A1.115,1.115,0,0,1,68.346,66.8l8.259-.521a1.115,1.115,0,0,1,.859.324l11.08,11.08a1.189,1.189,0,0,1,0,1.682L79.87,88.043a1.19,1.19,0,0,1-1.682,0l-11.08-11.08a1.115,1.115,0,0,1-.324-.859Z" transform="translate(-49.836 378.664)"/><path class="c" d="M75.068,74.52a2.726,2.726,0,1,1,0-3.855A2.726,2.726,0,0,1,75.068,74.52Z" transform="translate(-49.836 378.664)"/></g></svg>