<?xml version="1.0" standalone="no"?><!DOCTYPE svg PUBLIC "-//W3C//DTD SVG 1.1//EN" "http://www.w3.org/Graphics/SVG/1.1/DTD/svg11.dtd"><svg t="1701066178002" class="icon" viewBox="0 0 1024 1024" version="1.1" xmlns="http://www.w3.org/2000/svg" p-id="16034" xmlns:xlink="http://www.w3.org/1999/xlink" width="20" height="20"><path d="M917.703 148.793l-42.41-42.382a8.249 8.249 0 0 0-11.378 0L787.797 182.5a199.282 199.282 0 0 0-112.1-34.304c-51.2 0-102.4 19.512-141.51 58.595L432.299 308.708a8.05 8.05 0 0 0 0 11.292L704 591.701c1.593 1.593 3.584 2.276 5.689 2.276a8.372 8.372 0 0 0 5.689-2.276l101.916-101.916a200.22 200.22 0 0 0 24.292-253.497l76.117-76.089a8.164 8.164 0 0 0 0-11.378z m-338.802 397.91a8.021 8.021 0 0 0-11.32 0l-66.56 66.588-90.34-90.283 66.702-66.702a8.021 8.021 0 0 0 0-11.321l-36.409-36.409a8.05 8.05 0 0 0-11.292 0l-66.702 66.73L320 432.3a7.908 7.908 0 0 0-5.689-2.276 8.448 8.448 0 0 0-5.717 2.276L206.79 534.187A200.192 200.192 0 0 0 182.5 787.684L106.382 863.8a8.021 8.021 0 0 0 0 11.292l42.41 42.383c1.594 1.62 3.613 2.332 5.69 2.332a8.277 8.277 0 0 0 5.689-2.304l76.117-76.117a199.253 199.253 0 0 0 112.1 34.304c51.2 0 102.4-19.485 141.51-58.596l101.889-101.888a8.021 8.021 0 0 0 0-11.32l-42.98-42.98 66.674-66.703a8.021 8.021 0 0 0 0-11.32l-36.58-36.182z" fill="#004849" p-id="16035"></path></svg>