<svg xmlns="http://www.w3.org/2000/svg" xmlns:xlink="http://www.w3.org/1999/xlink" width="34" height="34" viewBox="0 0 34 34"><defs><style>.a{fill:#fff;}.b{clip-path:url(#a);}</style><clipPath id="a"><rect class="a" width="34" height="34" transform="translate(11 55)"/></clipPath></defs><g class="b" transform="translate(-11 -55)"><g transform="translate(-60.799 -16.801)"><path class="a" d="M383.594,374.7h-8.071a.927.927,0,0,0-.925.925v8.07a.927.927,0,0,0,.925.925h8.071a.924.924,0,0,0,.925-.925v-8.07A.922.922,0,0,0,383.594,374.7Z" transform="translate(-290.761 -290.859)"/><path class="a" d="M100.093,89.507a.706.706,0,1,0,0-1.412H97.719V84.839h2.374a.706.706,0,1,0,0-1.412H97.719V81.612a1.735,1.735,0,0,0-1.732-1.732H94.172V77.506a.706.706,0,1,0-1.412,0V79.88H89.506V77.506a.706.706,0,1,0-1.412,0V79.88H84.838V77.506a.706.706,0,1,0-1.412,0V79.88H81.611a1.733,1.733,0,0,0-1.732,1.732v1.815H77.505a.706.706,0,0,0,0,1.412h2.374V88.1H77.505a.706.706,0,0,0,0,1.412h2.374v3.254H77.505a.706.706,0,0,0,0,1.412h2.374v1.815a1.735,1.735,0,0,0,1.732,1.735h1.815V100.1a.706.706,0,0,0,1.412,0V97.722h3.257V100.1a.706.706,0,1,0,1.412,0V97.722H92.76V100.1a.706.706,0,1,0,1.412,0V97.722h1.815a1.734,1.734,0,0,0,1.732-1.735V94.173h2.374a.706.706,0,1,0,0-1.412H97.719V89.507Zm-3.786,6.481a.323.323,0,0,1-.323.323H81.611a.321.321,0,0,1-.32-.323V81.612a.32.32,0,0,1,.32-.32H95.987a.322.322,0,0,1,.323.32V95.988Z"/></g></g></svg>