<svg xmlns="http://www.w3.org/2000/svg" xmlns:xlink="http://www.w3.org/1999/xlink" width="16" height="16" viewBox="0 0 16 16"><defs><style>.a{fill:#fff;stroke:#707070;}.b{clip-path:url(#a);}.c{fill:#5d38b4;}</style><clipPath id="a"><rect class="a" width="16" height="16" transform="translate(1154 616)"/></clipPath></defs><g class="b" transform="translate(-1154 -616)"><g transform="translate(1066.496 616)"><path class="c" d="M100.139,370.238H90.87a1.989,1.989,0,0,0-1.98,1.98v6.255a1.985,1.985,0,0,0,1.98,1.976h9.269a1.985,1.985,0,0,0,1.98-1.976v-6.255A1.989,1.989,0,0,0,100.139,370.238Zm-3.825,5.44v2.053H94.682v-2.057a1.653,1.653,0,1,1,1.645,0Z" transform="translate(0 -364.45)"/><path class="c" d="M242.217,5.843h-1.275V4.356a3.081,3.081,0,1,0-6.162,0V5.843h-1.275V4.356a4.356,4.356,0,0,1,8.712,0Z" transform="translate(-142.355)"/></g></g></svg>