<svg xmlns="http://www.w3.org/2000/svg" xmlns:xlink="http://www.w3.org/1999/xlink" width="188" height="188" viewBox="0 0 188 188"><defs><style>.a,.e{fill:#fff;}.a{stroke:#707070;}.b{clip-path:url(#a);}.c,.f{fill:#7747e8;}.d{fill:#5734d3;}.e,.f{fill-rule:evenodd;}</style><clipPath id="a"><rect class="a" width="188" height="188" transform="translate(866 170)"/></clipPath></defs><g class="b" transform="translate(-866 -170)"><g transform="translate(556.32 8.679)"><path class="c" d="M331.077,442.6a9.654,9.654,0,0,1-13.008-11.565l36.113-125.952L451.94,392Z" transform="translate(0 -96.825)"/><ellipse class="d" cx="12.66" cy="65.264" rx="12.66" ry="65.264" transform="matrix(0.658, -0.753, 0.753, 0.658, 345.388, 218.011)"/><circle class="d" cx="26.193" cy="26.193" r="26.193" transform="translate(377.566 296.26)"/><path class="e" d="M571.856,633.6a2.619,2.619,0,0,1-.032,3.7L559.39,649.53a2.619,2.619,0,0,1-3.672,0l-5.027-4.941a2.619,2.619,0,1,1,3.672-3.736l3.191,3.136,10.6-10.419A2.619,2.619,0,0,1,571.856,633.6Z" transform="translate(-157.499 -319.097)"/><circle class="c" cx="5.239" cy="5.239" r="5.239" transform="translate(449.846 230.067)"/><circle class="c" cx="5.239" cy="5.239" r="5.239" transform="translate(406.192 175.935)"/><path class="c" d="M620.668,289.741a1.834,1.834,0,0,0-3.566,0l-.585,2.425a1.835,1.835,0,0,1-1.353,1.353l-2.425.585a1.834,1.834,0,0,0,0,3.566l2.425.585a1.834,1.834,0,0,1,1.353,1.352l.585,2.425a1.834,1.834,0,0,0,3.566,0l.585-2.425a1.834,1.834,0,0,1,1.353-1.352l2.425-.585a1.834,1.834,0,0,0,0-3.566l-2.425-.585a1.835,1.835,0,0,1-1.353-1.353Z" transform="translate(-199.16 -85.466)"/><path class="f" d="M523.124,163.982a2.619,2.619,0,0,1-1.479,3.4c-3.843,1.511-8.767,6.378-12.055,12.436-2.5,4.612-3.719,9.268-3.208,13.08a16.479,16.479,0,0,1,5.514-5.152c3.827-2.073,8.194-1.853,12.422,1.028,3.694,2.517,5.2,6.1,4.8,9.668a12.116,12.116,0,0,1-5.287,8.435,12.244,12.244,0,0,1-10.6,1.672,14.977,14.977,0,0,1-6.313-4,41.459,41.459,0,0,0,1.284,24.376,2.619,2.619,0,1,1-4.892,1.875,46.289,46.289,0,0,1-.222-31.518q-.141-.255-.28-.517c-3.484-6.578-1.4-14.863,2.175-21.446,3.6-6.634,9.31-12.677,14.742-14.813A2.619,2.619,0,0,1,523.124,163.982Zm-14.151,34.846a11.449,11.449,0,0,0,5.8,4.708,7.007,7.007,0,0,0,6.1-.982,6.893,6.893,0,0,0,3.045-4.7c.172-1.534-.365-3.271-2.545-4.757-2.764-1.883-5.033-1.8-6.977-.751S510.534,195.6,508.973,198.829Z" transform="translate(-123.947)"/><path class="f" d="M701.354,459.357c-27.455-10.2-48.467,2.485-55.26,9.661a4.365,4.365,0,1,1-6.341-6c8.628-9.114,33.189-23.534,64.643-11.843a4.365,4.365,0,1,1-3.042,8.184Z" transform="translate(-217.623 -192.933)"/></g></g></svg>