<svg xmlns="http://www.w3.org/2000/svg" xmlns:xlink="http://www.w3.org/1999/xlink" width="16" height="16" viewBox="0 0 16 16"><defs><style>.a{fill:#fff;stroke:#707070;}.b{clip-path:url(#a);}.c{fill:#5d38b4;}</style><clipPath id="a"><rect class="a" width="16" height="16" transform="translate(1154 490)"/></clipPath></defs><g class="b" transform="translate(-1154 -490)"><path class="c" d="M113.114,38.633a4,4,0,1,0,4.083,4A4.043,4.043,0,0,0,113.114,38.633Zm0,0a4,4,0,1,0,4.083,4A4.043,4.043,0,0,0,113.114,38.633Zm-1.53,9.334a5.222,5.222,0,0,0-5.274,5.166v.332c0,1.167,2.362,1.168,5.274,1.168h3.4c2.912,0,5.273-.043,5.273-1.168v-.332a5.221,5.221,0,0,0-5.273-5.166Zm0,0" transform="translate(1048.715 451.367)"/></g></svg>