<svg xmlns="http://www.w3.org/2000/svg" xmlns:xlink="http://www.w3.org/1999/xlink" width="24" height="24" viewBox="0 0 24 24"><defs><style>.a{fill:#fff;stroke:#707070;}.b{clip-path:url(#a);}.c{fill:#666;}</style><clipPath id="a"><rect class="a" width="24" height="24" transform="translate(1176 8)"/></clipPath></defs><g class="b" transform="translate(-1176 -8)"><path class="c" d="M98.985,53.6c-.4-3.1-.49-3.088-3.7-3.69a.345.345,0,0,1,0-.685c3.213-.479,3.274-.54,3.7-3.678a.343.343,0,0,1,.685.013c.407,3.1.527,3.063,3.69,3.665a.354.354,0,0,1,.319.344c0,.2-.136.306-.354.341-3.151.515-3.249.577-3.655,3.678a.344.344,0,0,1-.685.013m-5.405-7.564c-.356-1.936-.331-2.008-2.39-2.377A.218.218,0,0,1,91,43.434a.2.2,0,0,1,.186-.208c2.059-.417,2.033-.464,2.39-2.39a.2.2,0,0,1,.208-.183.21.21,0,0,1,.208.183c.341,1.926.341,1.973,2.377,2.39.123.025.2.085.2.208a.214.214,0,0,1-.2.221c-2.036.369-2.036.442-2.377,2.377a.2.2,0,0,1-.208.186.193.193,0,0,1-.208-.186M80.794,54.907a10.013,10.013,0,0,1,5.787-9.326c.427-.176.771-.151.967.073a.823.823,0,0,1-.013.894,8.887,8.887,0,0,0-.648,3.565c0,5.237,3.359,8.548,8.679,8.548a9.25,9.25,0,0,0,3.321-.565.712.712,0,0,1,.8.06.788.788,0,0,1,.05.9,9.586,9.586,0,0,1-9.083,5.566,9.434,9.434,0,0,1-9.856-9.711" transform="translate(1096.206 -32.653)"/></g></svg>