<?xml version="1.0" standalone="no"?><!DOCTYPE svg PUBLIC "-//W3C//DTD SVG 1.1//EN" "http://www.w3.org/Graphics/SVG/1.1/DTD/svg11.dtd"><svg t="1701136731242" class="icon" viewBox="0 0 1024 1024" version="1.1" xmlns="http://www.w3.org/2000/svg" p-id="7653" xmlns:xlink="http://www.w3.org/1999/xlink" width="20" height="20"><path d="M800 64c17.673 0 32 14.327 32 32v192H703.999l0.001-96H320v192H192v256h128v192h384l-0.001-96H832v192c0 17.673-14.327 32-32 32H224c-17.673 0-32-14.327-32-32V768H96c-17.673 0-32-14.327-32-32V288c0-17.673 14.327-32 32-32h96V96c0-17.673 14.327-32 32-32h576z" fill="#5734D3" p-id="7654"></path><path d="M757 352c-17.496 0-31.713 14.042-31.996 31.47L725 384v64.015l-0.499-0.011L724 448H309c-17.496 0-31.713 14.042-32 31.47V544c0 17.496 14.042 31.713 31.47 31.996l0.53 0.004h415l0.501-0.004 0.5-0.011L725 640a32 32 0 0 0 6.4 19.2c10.498 13.997 30.261 16.945 44.374 6.714l0.426-0.314 170.667-128a32 32 0 0 0 6.4-6.4c10.497-13.997 7.794-33.796-5.98-44.48l-0.42-0.32-170.667-128A32 32 0 0 0 757 352z" fill="#5734D3" p-id="7655"></path></svg>