<svg xmlns="http://www.w3.org/2000/svg" xmlns:xlink="http://www.w3.org/1999/xlink" width="34" height="34" viewBox="0 0 34 34"><defs><style>.a{fill:#fff;}.b{clip-path:url(#a);}</style><clipPath id="a"><rect class="a" width="34" height="34" transform="translate(11 183)"/></clipPath></defs><g class="b" transform="translate(-11 -183)"><g transform="translate(-133 -11)"><path class="a" d="M99.92,104.918a1.358,1.358,0,0,1-.363-.954l.061-3.744a1.359,1.359,0,0,1,.363-.955,1.167,1.167,0,0,1,.885-.392l4.794-.011,1.756,1.947a2.384,2.384,0,0,0,3.54,0l1.77-1.937h4.888a1.178,1.178,0,0,1,.885.392,1.348,1.348,0,0,1,.37.955l-.061,3.734a1.371,1.371,0,0,1-.363.955,1.165,1.165,0,0,1-.885.392l-16.754.011a1.167,1.167,0,0,1-.886-.392Zm16.844-1.96a.568.568,0,1,0,.566-.549A.559.559,0,0,0,116.763,102.958Zm-2.136,0a.568.568,0,1,0,.566-.549A.559.559,0,0,0,114.628,102.958Z" transform="translate(51.444 115.667)"/><path class="a" d="M108.6,85.581l-5.877,5.977a.75.75,0,0,0-.185.913.784.784,0,0,0,.775.51h3.455v6.683a.848.848,0,0,0,.839.835h3.222a.848.848,0,0,0,.839-.835v-6.68h3.4a.789.789,0,0,0,.778-.509.746.746,0,0,0-.185-.913l-5.877-5.981a.826.826,0,0,0-1.18,0h0Z" transform="translate(51.465 115.667)"/></g></g></svg>