<svg xmlns="http://www.w3.org/2000/svg" width="9.333" height="11.663" viewBox="0 0 9.333 11.663"><defs><style>.a{fill:#5734d3;}</style></defs><path class="a" d="M135.115,67.924l2.218,2.3H135v-2.3Zm1.44-2.028v1.2h-.681l-.875.013h-5.444v7.777h-1.215a.342.342,0,0,1-.341-.341V65.9a.342.342,0,0,1,.341-.341h2.77v-.875a.683.683,0,0,1,.681-.681h.875a.682.682,0,0,1,.68.681v.875h2.867A.342.342,0,0,1,136.555,65.9Zm-3.887-1.214,0,0h-.873l0,0v.873h.876Zm1.554,3.242h-3.51a.352.352,0,0,0-.379.34v7.059a.342.342,0,0,0,.341.341h6.319a.342.342,0,0,0,.341-.341V71.034h-3.111v-3.11Zm.893,0,2.218,2.3H135v-2.3Z" transform="translate(-128 -64)"/></svg>