<?xml version="1.0" standalone="no"?><!DOCTYPE svg PUBLIC "-//W3C//DTD SVG 1.1//EN" "http://www.w3.org/Graphics/SVG/1.1/DTD/svg11.dtd"><svg t="1701068879488" class="icon" viewBox="0 0 1024 1024" version="1.1" xmlns="http://www.w3.org/2000/svg" p-id="18792" xmlns:xlink="http://www.w3.org/1999/xlink" width="20" height="20"><path d="M956.292044 299.405964h-43.737864v-87.68059a65.35072 65.35072 0 0 0-65.760443-65.658012h-116.770879V65.761774A65.35072 65.35072 0 0 0 664.262415 0.001332H357.687641a65.555581 65.555581 0 0 0-65.760442 65.760442v80.305588H182.428892a65.35072 65.35072 0 0 0-65.658013 65.658012v87.68059h-51.215298a65.35072 65.35072 0 0 0-65.45315 65.658012v591.331831a65.35072 65.35072 0 0 0 65.555581 65.658012h890.634032a65.35072 65.35072 0 0 0 65.760443-65.658012V365.063976a65.35072 65.35072 0 0 0-65.760443-65.658012zM167.883747 511.539728h73.033015v335.357771h-73.033015z m153.645894 0h72.930584v335.357771h-73.237876z m299.302201 0h72.930585v335.357771h-73.237876z m-80.305587 0v335.357771h-73.340307V511.539728z m233.541759 0h73.033015v335.357771h-73.340307z" fill="#ffffff" p-id="18793"></path></svg>