<svg xmlns="http://www.w3.org/2000/svg" width="12.245" height="13.418" viewBox="0 0 12.245 13.418"><defs><style>.a{fill:#02c286;}</style></defs><path class="a" d="M187.705,140.9l-1.686-1.76a4.357,4.357,0,0,0,.22-8.652l-1.54-1.54h.66a5.98,5.98,0,0,1,6.086,5.866,5.876,5.876,0,0,1-3.153,5.133v1.466l-.587-.513Zm-1.613-.293c-.22,0-.513.073-.807.073a5.98,5.98,0,0,1-6.086-5.866,5.876,5.876,0,0,1,3.153-5.133V128l.953.953,1.466,1.466a4.384,4.384,0,0,0-.147,8.725Z" transform="translate(-179.2 -128)"/></svg>