<svg xmlns="http://www.w3.org/2000/svg" width="10.91" height="11.883" viewBox="0 0 10.91 11.883"><defs><style>.a{fill:#02c286;}</style></defs><g transform="translate(-161 -66)"><path class="a" d="M169.426,66a1.072,1.072,0,0,1,1.072,1.072v6a2.665,2.665,0,0,0-2.24,4.81h-6.186A1.072,1.072,0,0,1,161,76.81V67.072A1.072,1.072,0,0,1,162.072,66ZM166.7,72.309h-4.474a.4.4,0,1,0,0,.8H166.7a.4.4,0,1,0,0-.8Zm2.574-2.144h-7.047a.4.4,0,1,0,0,.8h7.047a.4.4,0,0,0,0-.8ZM166.7,68.021h-4.474a.4.4,0,1,0,0,.8H166.7a.4.4,0,1,0,0-.8Z"/><path class="a" d="M637.3,613a2.3,2.3,0,1,1-2.3,2.3A2.3,2.3,0,0,1,637.3,613Zm.2,1.042a.161.161,0,0,0-.161.161v1.206l-.855.844h0a.157.157,0,0,0,0,.222.161.161,0,0,0,.226,0l.906-.895h0a.157.157,0,0,0,.044-.133V614.2A.161.161,0,0,0,637.5,614.042Z" transform="translate(-467.686 -539.713)"/></g></svg>