<svg xmlns="http://www.w3.org/2000/svg" width="12.207" height="10.463" viewBox="0 0 12.207 10.463"><defs><style>.a{fill:#02c286;}</style></defs><path class="a" d="M76.207,109.573H64V108.7a.872.872,0,0,1,.872-.872h1.187a.435.435,0,0,1-.025-.145V107.1a.436.436,0,0,1,.872,0v.581a.437.437,0,0,1-.025.145h6.444a.435.435,0,0,1-.025-.145V107.1a.436.436,0,0,1,.872,0v.581a.437.437,0,0,1-.025.145h1.187a.872.872,0,0,1,.872.872Zm0,.872v5.813a.872.872,0,0,1-.872.872H64.872a.872.872,0,0,1-.872-.872v-5.813Zm-10.318,1.163a.436.436,0,1,0,0,.872H68.5a.436.436,0,0,0,0-.872Z" transform="translate(-64 -106.666)"/></svg>