<?xml version="1.0" standalone="no"?><!DOCTYPE svg PUBLIC "-//W3C//DTD SVG 1.1//EN" "http://www.w3.org/Graphics/SVG/1.1/DTD/svg11.dtd"><svg t="1701070206335" class="icon" viewBox="0 0 1024 1024" version="1.1" xmlns="http://www.w3.org/2000/svg" p-id="25352" xmlns:xlink="http://www.w3.org/1999/xlink" width="20" height="20"><path d="M768 387.413333V384A256 256 0 0 0 256 384v3.413333A256 256 0 0 0 298.666667 896h426.666666a256 256 0 0 0 42.666667-508.586667z m-277.76 155.733334a24.32 24.32 0 0 1-34.56 0L422.4 512v233.386667a24.32 24.32 0 1 1-49.066667 0V512l-32 31.146667a24.32 24.32 0 0 1-34.56-34.56l74.666667-75.093334a24.32 24.32 0 0 1 34.56 0l74.666667 75.093334a24.32 24.32 0 0 1-0.426667 34.56z m256 142.933333l-74.666667 75.093333a24.32 24.32 0 0 1-34.56 0l-74.666666-75.093333a24.32 24.32 0 0 1 34.56-34.56l33.28 33.28v-233.813333a24.32 24.32 0 1 1 49.066666 0V682.666667l33.28-33.28a24.32 24.32 0 0 1 34.56 34.56z" fill="#908c96" p-id="25353"></path></svg>