<svg xmlns="http://www.w3.org/2000/svg" width="10.286" height="11.768" viewBox="0 0 10.286 11.768"><defs><style>.a{fill:#02c286;}</style></defs><g transform="translate(-188.84 -142.3)"><path class="a" d="M200.992,225.619l-4.476-5.944a.534.534,0,0,0-.872-.014l-4.71,5.944a.536.536,0,0,0,.433.851h2.213v2.759a.767.767,0,0,0,.766.766h3.2a.767.767,0,0,0,.766-.766v-2.759h2.234A.537.537,0,0,0,200.992,225.619Z" transform="translate(-1.959 -75.914)"/><path class="a" d="M189.443,143.506h9.08a.6.6,0,1,0,0-1.206h-9.08a.6.6,0,1,0,0,1.206Z"/></g></svg>