<?xml version="1.0" standalone="no"?><!DOCTYPE svg PUBLIC "-//W3C//DTD SVG 1.1//EN" "http://www.w3.org/Graphics/SVG/1.1/DTD/svg11.dtd"><svg t="1701070557175" class="icon" viewBox="0 0 1024 1024" version="1.1" xmlns="http://www.w3.org/2000/svg" p-id="78536" xmlns:xlink="http://www.w3.org/1999/xlink" width="20" height="20"><path d="M512 70.9c-243.36 0-438.92 195.56-438.92 438.92S268.64 953.1 512 953.1s438.92-195.56 438.92-438.92C950.92 266.47 755.36 70.9 512 70.9z m0 838.74c-221.63 0-399.81-178.17-399.81-399.81 0-104.3 39.11-195.56 104.3-269.44l564.95 564.95C707.56 870.52 616.3 909.64 512 909.64z m295.51-130.38L242.56 214.31C312.09 149.12 407.7 110.02 512 110.02c221.63 0 399.81 178.17 399.81 399.81 0 104.3-39.11 199.9-104.3 269.43z m0 0" fill="#908c96" p-id="78537"></path><path d="M504.16 379.46a10.783 10.783 0 0 1 15.6 0l119.31 123c6.71 6.87 1.76 18.44-7.8 18.44h-60.5l202.01 202.01c51.63-22.68 87.05-75.1 87.05-137.45 0.08-77.72-60.79-143.54-133.32-149.5-20.29-101.7-107.32-179.43-214.56-179.43-57.05 0-108.73 22.04-146.93 58.61l102.29 102.29 36.85-37.97zM569.98 629.65c0 6.04-4.86 10.9-10.9 10.9h-94.24c-6.03 0-10.9-4.86-10.9-10.9V520.9h-61.29c-9.64 0-14.51-11.57-7.8-18.44l37.13-38.28-96.81-96.81c-1.58 2.9-3.09 5.84-4.54 8.82-87.81 11.62-153.41 83.16-156.5 172.81v13.08c3.33 95.72 80.28 172.88 173.85 172.88h354.78L569.98 612.17v17.48z" fill="#908c96" p-id="78538"></path></svg>