<svg xmlns="http://www.w3.org/2000/svg" width="11.537" height="11.532" viewBox="0 0 11.537 11.532"><defs><style>.a{fill:#5734d3;}</style></defs><g transform="translate(0 -0.418)"><path class="a" d="M9.064,677.4v.618a.206.206,0,0,1-.206.206H2.678a.206.206,0,0,1-.206-.206V677.4a.824.824,0,0,0-.824-.824H.824A.824.824,0,0,0,0,677.4v1.854a1.236,1.236,0,0,0,1.236,1.236H10.3a1.236,1.236,0,0,0,1.236-1.236V677.4a.824.824,0,0,0-.824-.824H9.889a.824.824,0,0,0-.824.824Z" transform="translate(0 -668.535)"/><path class="a" d="M248.183,4.515V7.673a.824.824,0,0,1-.824.824h-1.236a.824.824,0,0,1-.824-.824V4.515a.206.206,0,0,0-.206-.206h-.964a.412.412,0,0,1-.313-.678L246.428.558a.412.412,0,0,1,.618,0l2.62,3.074a.412.412,0,0,1-.313.678h-.964a.206.206,0,0,0-.206.206Z" transform="translate(-240.972)"/></g></svg>