<svg xmlns="http://www.w3.org/2000/svg" width="11.919" height="11.919" viewBox="0 0 11.919 11.919"><defs><style>.a{fill:#02c286;}</style></defs><path class="a" d="M138.926,136.939a.993.993,0,0,1,0,1.987h-7.251a1.923,1.923,0,0,1-1.689.993,1.987,1.987,0,1,1,0-3.973,1.923,1.923,0,0,1,1.689.993ZM134.953,128a1.923,1.923,0,0,1,1.689.993h2.285a.993.993,0,0,1,0,1.987h-2.285a1.932,1.932,0,0,1-3.377,0h-4.271a.993.993,0,1,1,0-1.987h4.271A1.923,1.923,0,0,1,134.953,128Zm-1.987,4.966h5.96a.993.993,0,0,1,0,1.987h-5.96a.993.993,0,1,1,0-1.987Zm-3.973,0h.993a.993.993,0,0,1,0,1.987h-.993a.993.993,0,1,1,0-1.987Zm5.96-1.987a.993.993,0,1,0-.993-.993A.938.938,0,0,0,134.953,130.98Zm-4.966,7.946a.993.993,0,1,0-.993-.993A.938.938,0,0,0,129.987,138.926Z" transform="translate(-128 -128)"/></svg>