<?xml version="1.0" standalone="no"?><!DOCTYPE svg PUBLIC "-//W3C//DTD SVG 1.1//EN" "http://www.w3.org/Graphics/SVG/1.1/DTD/svg11.dtd"><svg t="1700818371502" class="icon" viewBox="0 0 1024 1024" version="1.1" xmlns="http://www.w3.org/2000/svg" p-id="59202" xmlns:xlink="http://www.w3.org/1999/xlink" width="20" height="20"><path d="M512.984024 427.635315c-46.156877 0-89.561562 17.973814-122.188108 50.615736-32.641922 32.641922-50.615736 76.031231-50.615736 122.188108 0 46.156877 17.973814 89.561562 50.615736 122.188108 32.641922 32.641922 76.031231 50.615736 122.188108 50.615736 46.156877 0 89.546186-17.973814 122.188108-50.615736 32.641922-32.641922 50.615736-76.031231 50.615736-122.188108 0-46.156877-17.973814-89.546186-50.615736-122.188108-32.626547-32.641922-76.031231-50.615736-122.188108-50.615736z" fill="#7747E8" p-id="59203"></path><path d="M1001.628829 482.156396L556.127327 73.801802c-25.00036-22.909309-63.361922-22.909309-88.362282 0L22.325045 482.156396a37.383688 37.383688 0 0 0-9.548108 41.052253 37.340637 37.340637 0 0 0 34.763724 23.816456h44.05045v326.941982c0 24.76973 9.84024 48.54006 27.368168 66.052613a93.428468 93.428468 0 0 0 66.052613 27.352792h653.899339c24.76973 0 48.54006-9.84024 66.052613-27.352792a93.454607 93.454607 0 0 0 27.352793-66.052613V547.025105l44.096576 0.046126a37.377538 37.377538 0 0 0 34.825225-23.831832 37.39445 37.39445 0 0 0-9.609609-41.083003z m-227.663183 380.233033c-5.781141 5.781141-13.468829 8.963844-21.648529 8.963844s-15.867387-3.182703-21.633153-8.963844l-76.846126-76.846126a231.207207 231.207207 0 0 1-50.308228 29.182463c-28.69045 12.131171-59.149069 18.296697-90.545586 18.296696s-61.855135-6.15015-90.545586-18.296696c-27.706426-11.716036-52.568408-28.475195-73.924804-49.831592-21.341021-21.341021-38.115556-46.218378-49.831592-73.924805-12.131171-28.69045-18.296697-59.164444-18.296697-90.545585 0-31.381141 6.15015-61.83976 18.296697-90.545586 11.716036-27.706426 28.490571-52.583784 49.831592-73.924805 21.341021-21.341021 46.218378-38.115556 73.924804-49.831591 28.69045-12.131171 59.164444-18.296697 90.545586-18.296697 31.381141 0 61.855135 6.15015 90.545586 18.296697 27.706426 11.716036 52.568408 28.490571 73.924804 49.831591 21.356396 21.356396 38.115556 46.218378 49.831592 73.924805 12.131171 28.69045 18.296697 59.149069 18.296697 90.545586s-6.15015 61.855135-18.296697 90.545585a230.501477 230.501477 0 0 1-30.043483 51.415256l76.707747 76.723123c11.931291 11.946667 11.931291 31.35039 0.015376 43.281681z" fill="#7747E8" p-id="59204"></path></svg>