<svg xmlns="http://www.w3.org/2000/svg" width="12" height="12.225" viewBox="0 0 12 12.225"><defs><style>.a{fill:#02c286;}</style></defs><path class="a" d="M187.321,141.07a6.081,6.081,0,0,0,1.8,3.23.556.556,0,0,0,.862-.126l.722-1.251a.556.556,0,0,0-.07-.651,3.634,3.634,0,0,1-.8-1.46.556.556,0,0,0-.535-.407h-1.431a.556.556,0,0,0-.544.667Zm7.35,2.572a.555.555,0,0,0-.6-.266,3.579,3.579,0,0,1-1.807-.072.556.556,0,0,0-.643.254l-.709,1.229a.555.555,0,0,0,.289.8,6.137,6.137,0,0,0,3.871.116.555.555,0,0,0,.321-.81l-.722-1.25Zm2.553-8.488a.555.555,0,0,0-.356-.129.576.576,0,0,0-.1.009.556.556,0,0,0-.384.269l-.711,1.23a.557.557,0,0,0,.1.684,3.575,3.575,0,0,1,1.007,1.666.556.556,0,0,0,.536.409h1.431a.556.556,0,0,0,.544-.666A6.1,6.1,0,0,0,197.225,135.154Zm-1.8-.833a.556.556,0,0,0-.356-.327,6.132,6.132,0,0,0-3.871.115.556.556,0,0,0-.289.8l.709,1.229a.556.556,0,0,0,.643.254,3.57,3.57,0,0,1,1.807-.072.556.556,0,0,0,.6-.265l.722-1.25A.555.555,0,0,0,195.429,134.321Zm3.325,6.082h-1.431a.555.555,0,0,0-.536.408,3.576,3.576,0,0,1-1.007,1.666.556.556,0,0,0-.1.683l.711,1.23a.555.555,0,0,0,.384.269.574.574,0,0,0,.1.008.555.555,0,0,0,.356-.129,6.107,6.107,0,0,0,2.074-3.472.556.556,0,0,0-.544-.666Zm-11.319-1.316a.555.555,0,0,0,.43.2H189.3a.556.556,0,0,0,.535-.407,3.634,3.634,0,0,1,.8-1.461.555.555,0,0,0,.07-.651l-.722-1.251a.555.555,0,0,0-.862-.126,6.079,6.079,0,0,0-1.8,3.23.555.555,0,0,0,.114.462Z" transform="translate(-187.31 -133.734)"/></svg>