<svg xmlns="http://www.w3.org/2000/svg" width="11.273" height="11.276" viewBox="0 0 11.273 11.276"><defs><style>.a{fill:#02c286;}</style></defs><g transform="translate(-9.218 -8.893)"><path class="a" d="M332.773,9.808a.531.531,0,0,0-.041-.052,2.844,2.844,0,0,0-2.012-.863,2.97,2.97,0,0,0-2.037.816l-1.974,1.98a2.8,2.8,0,0,0-.813,2.034,2.916,2.916,0,0,0,.863,2.029.336.336,0,0,0,.044.037.77.77,0,0,0,1.041-1.133,1.389,1.389,0,0,1-.412-.967,1.266,1.266,0,0,1,.364-.917l1.97-1.978a1.263,1.263,0,0,1,.946-.368,1.319,1.319,0,0,1,.934.415,1.39,1.39,0,0,1,.412.967,1.251,1.251,0,0,1-.354.9l-1.268,1.229a.77.77,0,1,0,1.068,1.109l1.279-1.234a2.807,2.807,0,0,0,.813-2.034,2.846,2.846,0,0,0-.823-1.978Z" transform="translate(-313.105)"/><path class="a" d="M14.989,381.751a.773.773,0,0,0-.021,1.094,1.394,1.394,0,0,1,.413.967,1.262,1.262,0,0,1-.364.917L13.049,386.7a1.367,1.367,0,0,1-1.926-1.937l1.281-1.353a.771.771,0,0,0-.028-1.088.771.771,0,0,0-1.088.029l-1.268,1.339a2.89,2.89,0,0,0,.058,4.052,2.94,2.94,0,0,0,2.071.866h.014a2.763,2.763,0,0,0,1.966-.815l1.978-1.981a2.81,2.81,0,0,0,.813-2.034,2.924,2.924,0,0,0-.871-2.035.773.773,0,0,0-1.058,0Z" transform="translate(0 -368.444)"/></g></svg>