<svg xmlns="http://www.w3.org/2000/svg" width="22" height="22" viewBox="0 0 22 22"><defs><style>.a{fill:#fff;}.b{fill:#5734d3;}</style></defs><g transform="translate(-1871.925 -15)"><path class="a" d="M96.156,85.156a11,11,0,1,0,11,11A11.032,11.032,0,0,0,96.156,85.156Z" transform="translate(1786.77 -70.156)"/><path class="b" d="M96.156,85.156a11,11,0,1,0,11,11A11.032,11.032,0,0,0,96.156,85.156Zm6.655,15.675a8.833,8.833,0,0,1-13.31,0,.576.576,0,0,1-.055-.66,8.053,8.053,0,0,1,4.895-3.3,4.39,4.39,0,1,1,6.16-4.62,4.453,4.453,0,0,1-2.585,4.675,7.62,7.62,0,0,1,4.895,3.3.5.5,0,0,1,0,.6Z" transform="translate(1786.77 -70.156)"/></g></svg>