<svg xmlns="http://www.w3.org/2000/svg" xmlns:xlink="http://www.w3.org/1999/xlink" width="12" height="12" viewBox="0 0 12 12"><defs><style>.a{fill:#fff;stroke:#707070;}.b{clip-path:url(#a);}.c{fill:#222426;}</style><clipPath id="a"><rect class="a" width="12" height="12" transform="translate(606 922)"/></clipPath></defs><g class="b" transform="translate(-922 618) rotate(-90)"><path class="c" d="M69.382,250.88a1.031,1.031,0,0,1,.544.127.617.617,0,0,1,.278.335.806.806,0,0,1,0,.468,1.258,1.258,0,0,1-.3.515q-.937,1.041-1.8,2.036t-1.677,1.862a1.549,1.549,0,0,1-.515.359,1.6,1.6,0,0,1-.607.133,1.669,1.669,0,0,1-.6-.1,1.173,1.173,0,0,1-.486-.324q-.451-.5-.937-1.018l-.995-1.041q-.486-.521-.966-1.024t-.9-.977a1.068,1.068,0,0,1-.254-.457.749.749,0,0,1,.012-.434.634.634,0,0,1,.266-.324.922.922,0,0,1,.509-.127q.4,0,1.116-.006t1.556-.006h5.761Z" transform="translate(546.69 674.597)"/></g></svg>